# xmcd
#
# Track frame offsets:
#       150
#       14987
#       27922
#       66202
#       80052
#       90560
#       106367
#       118704
#       135390
#       150297
#       182815
#       199570
#       214877
#       234590
#       246675
#
# Disc length: 3696 seconds
#
# Revision: 4
# Processed by: cddbd v1.4PL0 Copyright (c) Steve Scherf et al.
# Submitted via: CD-DA_X-Tractor v0.21
#
DISCID=d20e6e0f
DTITLE=Various Artist - Evidence Blues Sampler - Five
DYEAR=1996
DGENRE=Blues
TTITLE0=Big Mama Thornton - Hound Dog
TTITLE1=Paul Delay Band - I Can't Quit You No
TTITLE2=Carl Weathersby - The Things The Blues Will Make You Do
TTITLE3=J.B. Lenoir - Vietnam Blues
TTITLE4=Frank Frost - Cotton Needs Pickin'
TTITLE5=Mama Estella Yancey - Weekly Blues
TTITLE6=Sunnyland Slim - I Feel So Good
TTITLE7=Paul Delay Band - The Other One
TTITLE8=Robert Covington - I Don't Care
TTITLE9=Melvin Taylor - Tin Pan Alley
TTITLE10=Billy Branch and The S O B's - Where's My Money
TTITLE11=Sunnyland Slim Blues Band - You Used To Love Me
TTITLE12=Sonny Boy Williamson - I Don't Know
TTITLE13=Magic Sam's Blues Band - All Your Love
TTITLE14=The Yardbirds - Smokestack Lightning
EXTD=
EXTT0=
EXTT1=
EXTT2=
EXTT3=
EXTT4=
EXTT5=
EXTT6=
EXTT7=
EXTT8=
EXTT9=
EXTT10=
EXTT11=
EXTT12=
EXTT13=
EXTT14=
PLAYORDER=
